<?xml version="1.0" encoding="UTF-8"?>
<!DOCTYPE svg PUBLIC "-//W3C//DTD SVG 1.1//EN" "http://www.w3.org/Graphics/SVG/1.1/DTD/svg11.dtd">
<svg xmlns="http://www.w3.org/2000/svg" version="1.1" width="2067px" height="1884px" style="shape-rendering:geometricPrecision; text-rendering:geometricPrecision; image-rendering:optimizeQuality; fill-rule:evenodd; clip-rule:evenodd" xmlns:xlink="http://www.w3.org/1999/xlink">
<g><path style="opacity:1" fill="#b543af" d="M 1031.5,-0.5 C 1032.5,-0.5 1033.5,-0.5 1034.5,-0.5C 1073.84,45.3415 1117.17,86.8415 1164.5,124C 1194.7,146.529 1224.03,170.195 1252.5,195C 1397.36,337.266 1434.86,504.099 1365,695.5C 1358.94,711.945 1352.61,728.278 1346,744.5C 1323,796.5 1300,848.5 1277,900.5C 1255.62,949.311 1238.62,999.644 1226,1051.5C 1221.86,1069.34 1218.69,1087.34 1216.5,1105.5C 1180.83,1105.67 1145.17,1105.5 1109.5,1105C 1116.4,1049.9 1128.9,996.071 1147,943.5C 1157.55,913.853 1168.88,884.519 1181,855.5C 1203.27,805.951 1225.27,756.284 1247,706.5C 1265.62,663.644 1279.62,619.31 1289,573.5C 1300.63,509.602 1292.63,448.269 1265,389.5C 1241.27,340.089 1208.77,297.256 1167.5,261C 1136.98,237.241 1106.65,213.241 1076.5,189C 1061.7,176.538 1047.2,163.705 1033,150.5C 1018.8,163.705 1004.3,176.538 989.5,189C 959.349,213.241 929.015,237.241 898.5,261C 844.451,308.241 806.284,366.074 784,434.5C 767.333,492.878 767.667,551.212 785,609.5C 794.362,642.55 805.695,674.883 819,706.5C 840.725,756.284 862.725,805.951 885,855.5C 910.05,912.317 929.717,970.984 944,1031.5C 949.288,1055.86 953.455,1080.36 956.5,1105C 920.835,1105.5 885.168,1105.67 849.5,1105.5C 843.047,1059.02 831.88,1013.69 816,969.5C 807.392,946.342 798.392,923.342 789,900.5C 765.059,846.951 741.392,793.284 718,739.5C 697.967,692.4 682.967,643.733 673,593.5C 655.509,492.294 672.509,397.294 724,308.5C 755.752,254.062 796.252,206.896 845.5,167C 900.534,127.326 952.034,83.1589 1000,34.5C 1010.34,22.6642 1020.84,10.9975 1031.5,-0.5 Z"/></g>
<g><path style="opacity:1" fill="#b543af" d="M -0.5,938.5 C -0.5,921.167 -0.5,903.833 -0.5,886.5C 10.0975,785.104 56.4308,704.604 138.5,645C 220.885,591.753 309.552,578.086 404.5,604C 457.805,620.472 504.805,647.472 545.5,685C 606.391,743.914 653.557,812.414 687,890.5C 717.263,959.218 736.763,1030.89 745.5,1105.5C 710.16,1105.83 674.827,1105.5 639.5,1104.5C 624.828,1008.29 590.994,919.62 538,838.5C 509.5,795.333 473.667,759.5 430.5,731C 367.72,692.976 302.053,686.976 233.5,713C 162.077,747.453 119.911,803.953 107,882.5C 103.47,908.967 104.304,935.3 109.5,961.5C 75.1121,968.578 40.7788,975.911 6.5,983.5C 3.49728,968.469 1.16394,953.469 -0.5,938.5 Z"/></g>
<g><path style="opacity:1" fill="#b543af" d="M 2066.5,886.5 C 2066.5,903.833 2066.5,921.167 2066.5,938.5C 2064.84,953.469 2062.5,968.469 2059.5,983.5C 2025.22,975.911 1990.89,968.578 1956.5,961.5C 1970.03,888.953 1953.53,824.286 1907,767.5C 1852.48,708.485 1785.64,686.651 1706.5,702C 1670.53,710.485 1638.2,726.151 1609.5,749C 1569.03,783.12 1535.53,822.953 1509,868.5C 1466.7,941.894 1439.2,1020.56 1426.5,1104.5C 1391.17,1105.5 1355.84,1105.83 1320.5,1105.5C 1336.84,970.905 1385.67,849.905 1467,742.5C 1504.67,694.464 1550.17,655.964 1603.5,627C 1688.38,585.272 1775.38,580.272 1864.5,612C 1959.85,652.164 2023.02,721.664 2054,820.5C 2060.02,842.292 2064.18,864.292 2066.5,886.5 Z"/></g>
<g><path style="opacity:1" fill="#b543af" d="M 434.5,1196.5 C 833.5,1196.5 1232.5,1196.5 1631.5,1196.5C 1631.5,1230.17 1631.5,1263.83 1631.5,1297.5C 1232.5,1297.5 833.5,1297.5 434.5,1297.5C 434.5,1263.83 434.5,1230.17 434.5,1196.5 Z"/></g>
<g><path style="opacity:1" fill="#b543af" d="M 1034.5,1883.5 C 1033.5,1883.5 1032.5,1883.5 1031.5,1883.5C 934.5,1842.34 854.667,1779.34 792,1694.5C 772.483,1666.48 756.317,1636.48 743.5,1604.5C 761.709,1579.78 778.543,1554.11 794,1527.5C 817.719,1484.35 834.719,1438.68 845,1390.5C 880.76,1389.5 916.594,1389.17 952.5,1389.5C 938.847,1470.1 910.181,1544.77 866.5,1613.5C 885.452,1645.31 908.786,1673.81 936.5,1699C 965.888,1725.72 998.055,1748.55 1033,1767.5C 1093.5,1734.68 1144.5,1690.68 1186,1635.5C 1190.77,1628.3 1195.27,1620.96 1199.5,1613.5C 1155.82,1544.77 1127.15,1470.1 1113.5,1389.5C 1149.41,1389.17 1185.24,1389.5 1221,1390.5C 1233.55,1447.92 1255.21,1501.58 1286,1551.5C 1298.05,1569.1 1310.22,1586.6 1322.5,1604C 1303.96,1650.62 1278.46,1692.79 1246,1730.5C 1187.35,1798 1116.85,1849 1034.5,1883.5 Z"/></g>
</svg>
